<?xml version="1.0" encoding="UTF-8"?>
<svg xmlns="http://www.w3.org/2000/svg" xmlns:xlink="http://www.w3.org/1999/xlink" viewBox="0 0 24 24" width="24px" height="24px">
<g id="surface6490130">
<path style=" stroke:none;fill-rule:nonzero;fill:rgb(100%,100%,100%);fill-opacity:1;" d="M 3.199219 12.800781 L 11.199219 12.800781 L 11.199219 20.800781 C 11.199219 21.242188 11.558594 21.601562 12 21.601562 C 12.441406 21.601562 12.800781 21.242188 12.800781 20.800781 L 12.800781 12.800781 L 20.800781 12.800781 C 21.242188 12.800781 21.601562 12.441406 21.601562 12 C 21.601562 11.558594 21.242188 11.199219 20.800781 11.199219 L 12.800781 11.199219 L 12.800781 3.199219 C 12.800781 2.757812 12.441406 2.398438 12 2.398438 C 11.558594 2.398438 11.199219 2.757812 11.199219 3.199219 L 11.199219 11.199219 L 3.199219 11.199219 C 2.757812 11.199219 2.398438 11.558594 2.398438 12 C 2.398438 12.441406 2.757812 12.800781 3.199219 12.800781 Z M 3.199219 12.800781 "/>
</g>
</svg>
