<?xml version="1.0" encoding="UTF-8"?>
<svg xmlns="http://www.w3.org/2000/svg" xmlns:xlink="http://www.w3.org/1999/xlink" viewBox="0 0 24 24" width="24px" height="24px">
<g id="surface6470874">
<path style=" stroke:none;fill-rule:nonzero;fill:rgb(100%,100%,100%);fill-opacity:1;" d="M 9.917969 2.015625 C 9.425781 2.011719 8.953125 2.207031 8.601562 2.554688 C 8.253906 2.902344 8.058594 3.375 8.0625 3.867188 L 8.0625 4.453125 L 5.664062 4.453125 C 4.761719 4.453125 4.003906 5.121094 3.886719 6.011719 C 3.769531 6.902344 4.332031 7.742188 5.203125 7.972656 L 5.203125 19.523438 C 5.203125 20.207031 5.453125 20.847656 5.890625 21.308594 C 6.324219 21.769531 6.929688 22.03125 7.566406 22.03125 L 16.433594 22.03125 C 17.070312 22.03125 17.675781 21.769531 18.109375 21.308594 C 18.546875 20.847656 18.796875 20.207031 18.796875 19.523438 L 18.796875 7.972656 C 19.667969 7.742188 20.230469 6.902344 20.113281 6.011719 C 19.996094 5.121094 19.238281 4.453125 18.335938 4.453125 L 15.9375 4.453125 L 15.9375 3.867188 C 15.941406 3.375 15.746094 2.902344 15.398438 2.554688 C 15.046875 2.207031 14.574219 2.011719 14.082031 2.015625 Z M 9.917969 2.953125 L 14.082031 2.953125 C 14.324219 2.949219 14.5625 3.042969 14.734375 3.214844 C 14.90625 3.386719 15.003906 3.621094 15 3.867188 L 15 4.453125 L 9 4.453125 L 9 3.867188 C 8.996094 3.625 9.09375 3.386719 9.265625 3.214844 C 9.4375 3.042969 9.675781 2.949219 9.917969 2.953125 Z M 5.664062 5.390625 L 18.335938 5.390625 C 18.804688 5.390625 19.179688 5.769531 19.179688 6.234375 C 19.179688 6.699219 18.804688 7.078125 18.335938 7.078125 L 5.664062 7.078125 C 5.195312 7.078125 4.820312 6.699219 4.820312 6.234375 C 4.820312 5.769531 5.195312 5.390625 5.664062 5.390625 Z M 6.140625 8.015625 L 17.859375 8.015625 L 17.859375 19.523438 C 17.859375 20.40625 17.234375 21.09375 16.433594 21.09375 L 7.566406 21.09375 C 6.765625 21.09375 6.140625 20.40625 6.140625 19.523438 Z M 9.234375 9.265625 C 8.976562 9.265625 8.765625 9.476562 8.765625 9.734375 L 8.765625 18.59375 C 8.765625 18.855469 8.976562 19.0625 9.234375 19.0625 C 9.492188 19.0625 9.703125 18.855469 9.703125 18.59375 L 9.703125 9.734375 C 9.703125 9.476562 9.492188 9.265625 9.234375 9.265625 Z M 12 9.265625 C 11.742188 9.265625 11.53125 9.476562 11.53125 9.734375 L 11.53125 18.59375 C 11.53125 18.855469 11.742188 19.0625 12 19.0625 C 12.257812 19.0625 12.46875 18.855469 12.46875 18.59375 L 12.46875 9.734375 C 12.46875 9.476562 12.257812 9.265625 12 9.265625 Z M 14.765625 9.265625 C 14.507812 9.265625 14.296875 9.476562 14.296875 9.734375 L 14.296875 18.59375 C 14.296875 18.855469 14.507812 19.0625 14.765625 19.0625 C 15.023438 19.0625 15.234375 18.855469 15.234375 18.59375 L 15.234375 9.734375 C 15.234375 9.476562 15.023438 9.265625 14.765625 9.265625 Z M 14.765625 9.265625 "/>
</g>
</svg>
